<?xml version="1.0" encoding="utf-8"?>
<!-- Svg Vector Icons : http://www.onlinewebfonts.com/icon -->
<!DOCTYPE svg PUBLIC "-//W3C//DTD SVG 1.1//EN" "http://www.w3.org/Graphics/SVG/1.1/DTD/svg11.dtd">
<svg version="1.1" xmlns="http://www.w3.org/2000/svg" xmlns:xlink="http://www.w3.org/1999/xlink" x="0px" y="0px" viewBox="0 0 1000 1000" enable-background="new 0 0 1000 1000" xml:space="preserve">
<metadata> Svg Vector Icons : http://www.onlinewebfonts.com/icon </metadata>
<g><g transform="translate(0.000000,512.000000) scale(0.100000,-0.100000)"><path d="M602.9,5002.1c-97.6-40.2-103.4-84.2-97.6-767.6l5.7-633.6l53.6-45.9c49.8-42.1,68.9-45.9,281.4-45.9c124.4,0,231.6-7.7,237.4-17.2c5.7-7.7,197.2-1835.8,423.1-4062.1C1734.3-2796.7,1929.5-4642,1941-4670.8c44-116.8-143.6-109.1,3059-109.1c3260,0,3024.6-9.6,3062.8,130.2c9.6,38.3,204.8,1883.6,430.7,4098.4c225.9,2212.9,417.3,4033.4,423,4042.9c5.8,9.6,112.9,17.2,237.4,17.2c212.5,0,231.6,3.8,281.4,45.9l53.6,45.9l5.7,633.6c5.7,691.1,0,729.3-103.4,767.6C9328.2,5026.9,662.3,5025,602.9,5002.1z M9134.8,4265.1v-411.6H5000H865.2v411.6v411.6H5000h4134.8V4265.1z M1581.1,3327.1c59.4-74.7,99.6-141.7,90-153.1c-63.2-84.2-160.8-201-166.5-195.3c-3.8,3.8-15.3,91.9-26.8,197.2c-11.5,103.4-24.9,220.1-30.6,256.5C1433.7,3510.8,1435.6,3508.9,1581.1,3327.1z M1900.8,3457.2c-28.7-49.8-91.9-120.6-107.2-120.6s-78.5,70.8-107.2,120.6c-17.2,28.7-7.7,32.5,107.2,32.5S1918,3485.9,1900.8,3457.2z M2848.4,3340.5l116.8-149.3l-260.3-327.3c-143.6-181.9-266.1-327.3-271.8-325.4c-7.7,1.9-130.2,149.3-273.7,327.3c-222.1,275.7-254.6,327.3-235.5,356.1c13.4,17.2,65.1,84.2,116.8,149.3l93.8,118.7l298.6-1.9h298.6L2848.4,3340.5z M3164.2,3436.2c-76.6-109.1-93.8-112.9-155.1-40.2c-30.6,36.4-55.5,70.8-57.4,80.4c0,7.7,57.4,13.4,126.3,13.4h124.4L3164.2,3436.2z M4117.5,3348.1c65.1-78.5,116.8-149.3,116.8-157c0-13.4-514.9-658.5-526.4-658.5c-1.9,0-122.5,147.4-266.1,325.4c-162.7,202.9-256.5,335-248.9,350.3c7.7,13.4,61.3,80.4,118.7,153.1l103.4,128.3h292.9h294.8L4117.5,3348.1z M4423.8,3413.2c-34.5-42.1-68.9-76.6-76.6-76.6c-7.7,0-42.1,34.5-74.7,76.6l-61.3,76.6h137.8h135.9L4423.8,3413.2z M5384.8,3361.5c59.4-72.7,112.9-139.7,120.6-153.1c9.6-19.2-342.6-484.3-497.7-654.7c-19.1-21.1-70.8,34.5-283.3,300.5c-143.6,178-260.3,331.2-260.3,336.9c0,7.7,51.7,78.5,116.8,157l114.9,141.7h292.9h291L5384.8,3361.5z M5746.6,3476.4c-1.9-9.6-26.8-44-57.4-80.4c-61.3-72.7-78.5-68.9-155.1,40.2l-38.3,53.6h124.4C5689.1,3489.8,5746.6,3484,5746.6,3476.4z M6615.7,3417c32.5-38.3,86.1-105.3,120.6-149.3l63.2-78.5l-260.3-323.5c-143.6-178-266.1-325.4-273.8-327.3c-5.7-1.9-130.2,143.6-273.7,323.5l-260.3,327.3l116.8,149.3l118.7,149.3h296.7l296.7,1.9L6615.7,3417z M7017.7,3466.8c-7.7-13.4-36.4-53.6-63.2-86.1l-49.8-63.2l-42.1,53.6c-97.6,114.8-97.6,118.7,42.1,118.7C7000.4,3489.8,7027.2,3484,7017.7,3466.8z M7953.7,3346.2c61.3-78.5,109.1-153.1,105.3-164.6c-9.6-26.8-501.5-647-514.9-648.9c-11.5,0-511.1,622.1-518.8,647c-3.8,9.6,46,82.3,109.1,162.7l114.9,147.4H7546l296.7-1.9L7953.7,3346.2z M8290.7,3457.2c-49.8-67-101.5-120.6-112.9-120.6c-7.7,0-40.2,34.5-74.7,76.6l-61.2,76.6h137.8C8306,3489.8,8315.5,3487.9,8290.7,3457.2z M8552.9,3447.7c-5.7-24.9-19.1-147.4-30.6-273.7c-13.4-126.4-24.9-231.6-26.8-233.5c-3.8-3.8-49.8,49.8-105.3,118.7c-63.2,78.5-95.7,132.1-86.1,147.4c32.5,55.5,227.8,283.3,241.2,283.3C8554.8,3489.8,8556.7,3470.6,8552.9,3447.7z M2063.5,2724.1c147.4-185.7,254.6-333.1,246.9-346.5c-32.5-49.8-499.6-622.1-513-626c-28.7-9.6-204.8,229.7-206.7,281.4c0,26.8-15.3,193.3-34.5,371.4l-32.5,319.7l130.2,162.7c72.7,90,135.9,162.7,139.7,162.7C1799.3,3049.5,1920,2904,2063.5,2724.1z M3344.2,2722.1l260.3-325.4l-260.3-325.4c-143.6-179.9-268-323.5-277.6-319.7c-30.6,11.5-518.8,629.8-513,648.9c9.6,28.7,501.5,647,514.9,648.9C3076.2,3049.5,3198.7,2902.1,3344.2,2722.1z M4622.9,2716.4l260.3-321.6l-260.3-323.5c-143.6-178-268-323.5-275.6-323.5c-7.7,0-130.2,145.5-273.7,323.5l-258.4,325.4l262.2,325.4c143.6,179.9,268,325.4,273.7,321.6C4358.7,3041.8,4481.2,2894.4,4622.9,2716.4z M5890.2,2733.6c135.9-172.3,250.8-321.6,254.6-333.1c3.8-11.5-111-164.6-256.5-344.6L5626,1732.5l-248.9,308.2c-135.9,170.4-256.5,319.7-266.1,333.1c-11.5,15.3,63.2,124.4,243.1,348.4c145.5,179.9,268,327.3,275.7,327.3C5635.6,3047.6,5752.3,2905.9,5890.2,2733.6z M7174.6,2724.1c147.4-185.7,254.6-333.1,247-346.5c-24.9-38.3-497.7-620.2-513-629.8c-11.5-7.7-530.3,622.1-530.3,647c0,13.4,514.9,654.7,526.4,654.7C6910.4,3049.5,7031.1,2904,7174.6,2724.1z M8330.8,2873.4l141.7-176.1l-34.5-346.5l-34.5-344.6l-111-137.8l-111-139.7L7919.3,2056c-143.6,178-258.4,335-254.6,346.5c9.6,28.7,499.6,645.1,514.9,645.1C8185.4,3049.5,8254.3,2971,8330.8,2873.4z M2695.2,1939.2c143.6-178,256.5-333.1,252.7-344.6c-11.5-36.4-503.4-648.9-514.9-645.1c-7.7,1.9-130.2,149.3-273.7,327.3l-260.3,321.6l70.8,90c40.2,49.8,158.9,199.1,264.2,333.1c105.3,132.1,193.3,241.2,195.3,243.1C2433,2264.6,2551.7,2119.2,2695.2,1939.2z M3991.2,1916.2c134-164.6,243.1-306.3,243.1-313.9c0-13.4-513-658.5-524.5-658.5c-3.8,0-124.4,147.4-269.9,327.3l-262.3,325.4l65.1,82.3c369.5,470.9,467.1,583.9,486.2,560.9C3740.4,2226.4,3859.1,2080.9,3991.2,1916.2z M5248.9,1939.2c130.2-162.7,243.1-306.3,252.7-319.7c15.3-19.2-120.6-202.9-476.7-635.5l-38.3-45.9l-243.1,302.5c-134,164.6-252.7,315.8-264.2,335c-17.2,28.7,21.1,84.2,243.1,361.8c147.4,179.9,271.8,321.6,277.6,313.9C5007.7,2241.7,5118.7,2101.9,5248.9,1939.2z M7804.4,1939.2c143.6-178,258.4-335,254.6-348.4c-9.6-28.7-499.6-645.1-514.9-645.1c-11.5-1.9-513,620.2-518.8,647c-3.8,11.5,495.8,664.3,513,671.9C7540.3,2264.6,7658.9,2119.2,7804.4,1939.2z M6514.2,1954.5c128.3-160.8,245-306.3,260.4-323.5c23-26.8-3.8-68.9-235.4-354.1c-141.7-178-266.1-323.5-275.7-323.5c-7.7,0-132.1,145.5-273.7,323.5l-258.4,323.5l258.4,323.5c143.6,176.1,268,321.6,275.6,321.6C6274.9,2245.5,6386,2113.4,6514.2,1954.5z M8359.6,1581.2c-11.5-45.9-15.3-47.9-42.1-19.1c-28.7,26.8-28.7,34.5,5.7,84.2c30.6,45.9,36.4,47.9,42.1,19.1C8369.1,1646.3,8367.2,1608.1,8359.6,1581.2z M1674.9,1583.2c-13.4-36.4-44-13.4-44,34.5c0,32.5,5.7,34.5,26.8,15.3C1673,1621.4,1680.7,1598.5,1674.9,1583.2z M2063.5,1135.2C2302.8,836.6,2321.9,806,2299,771.5c-44-61.3-505.4-629.8-509.2-626c0,1.9-28.7,264.2-61.3,583.9l-61.3,580l59.3,76.6c34.4,40.2,63.2,74.7,68.9,74.7C1799.3,1460.6,1920,1313.2,2063.5,1135.2z M3344.2,1129.5l260.3-321.6l-266.1-333.1l-266.1-333.1l-262.2,325.4c-145.5,178-260.3,333.1-256.5,344.6c11.5,36.4,503.4,647,516.9,643.2C3078.1,1453,3200.6,1305.6,3344.2,1129.5z M4622.9,1127.6l258.4-323.5l-258.4-321.6c-141.7-178-266.1-323.5-273.7-323.5s-132.1,145.5-275.7,323.5l-258.4,325.4l262.2,325.4c143.6,179.9,268,325.4,275.7,321.6C4358.7,1453,4481.2,1305.6,4622.9,1127.6z M5876.7,1158.2c124.4-155.1,239.3-298.6,252.7-321.6c23-36.4,3.8-67-237.4-367.5l-262.2-327.3l-53.6,61.3c-44,51.7-407.7,505.4-465.2,581.9c-13.4,15.3,65.1,126.3,245,348.4c145.5,178,269.9,321.6,277.6,315.9C5641.3,1445.3,5750.4,1313.2,5876.7,1158.2z M7172.7,1135.2c170.4-212.5,256.5-333.1,246.9-348.4c-11.5-19.1-446-564.7-505.4-633.6c-9.6-11.5-472.8,545.6-522.6,631.7c-11.5,19.2,59.3,122.5,245,352.2c143.6,178,264.2,323.5,266.1,323.5C6906.6,1460.6,7027.2,1315.2,7172.7,1135.2z M8261.9,1370.7c61.2-78.5,68.9-99.5,59.3-168.5c-5.7-42.1-30.6-285.2-57.4-541.7c-26.8-256.5-55.5-478.6-63.2-493.9c-11.5-23-82.3,51.7-279.5,296.7c-145.5,179.9-260.3,336.9-256.5,346.5c9.6,30.6,501.5,648.9,514.9,650.8C8187.3,1460.6,8223.7,1420.4,8261.9,1370.7z M3979.7,340.8c124.4-157,235.5-298.6,243.1-312c9.6-15.3-74.7-135.9-245-348.4c-143.6-180-264.2-325.4-268-325.4c-3.8,0-124.4,147.4-269.9,327.3L3177.6,7.7l65.1,82.3c369.5,472.8,467.1,583.9,486.2,560.9C3740.4,637.5,3853.4,499.7,3979.7,340.8z M5248.9,350.4C5379,187.7,5492,44.1,5501.6,30.7c21-24.9-493.9-683.4-520.7-666.2c-21.1,13.4-463.3,560.9-497.7,612.6c-21.1,36.4,0,68.9,241.2,369.5c145.5,179.9,269.9,323.5,277.6,313.9C5007.7,652.8,5118.7,513.1,5248.9,350.4z M2701,340.8C2840.7,166.6,2951.7,15.4,2947.9,2c-13.4-38.3-503.4-645.1-518.8-641.3c-7.7,1.9-130.2,149.3-271.8,327.3C1929.5-28.7,1900.8,15.4,1923.8,42.2c15.3,17.2,132.1,162.7,260.3,323.5c128.3,158.9,239.3,291,246.9,291C2438.7,656.7,2561.2,515,2701,340.8z M6504.6,375.3C6631,220.2,6747.7,74.7,6765,51.7c34.5-42.1,30.6-47.9-225.9-365.6C6397.4-490,6273-635.5,6263.4-635.5c-7.7,0-132.1,145.5-273.7,323.5L5731.3,11.6l260.3,323.5c143.6,176.1,266.1,321.6,273.7,321.6C6273,656.7,6380.2,530.3,6504.6,375.3z M7812.1,338.9c139.7-174.2,250.8-325.4,246.9-335c-11.5-36.4-503.4-647-516.8-643.2c-7.6,1.9-130.2,149.3-273.7,325.4L7008.1,7.7l260.3,325.4c141.7,178,266.1,323.5,273.7,323.5C7551.7,656.7,7672.3,513.1,7812.1,338.9z M3344.2-461.3c166.5-206.7,252.7-331.2,243.1-344.6c-9.6-11.5-130.2-160.8-268-331.2l-248.9-310.1l-262.3,325.4c-143.6,179.9-258.4,335-254.6,344.6c11.5,36.4,503.4,647,518.8,643.2C3080-135.9,3202.5-283.3,3344.2-461.3z M4617.2-453.6c141.7-178,256.5-327.4,254.6-335c-5.7-24.9-509.2-641.3-522.6-641.3c-7.7,0-132.1,145.5-273.7,323.5L3817-784.8l260.3,327.3c145.5,181.9,266.1,329.2,271.8,327.3C4354.9-130.1,4475.5-275.6,4617.2-453.6z M5867.2-419.2C5997.3-580,6116-729.3,6129.4-752.3c23-36.4,3.8-67-239.3-369.5c-145.5-181.9-269.9-321.6-277.6-313.9c-13.4,15.3-470.9,589.6-501.5,631.7c-11.5,15.3,68.9,128.2,247,348.4c143.6,180,264.2,327.3,268,327.3C5627.9-128.2,5737-260.3,5867.2-419.2z M7170.8-453.6c143.6-178,260.3-327.4,260.3-333.1c0-9.6-513-643.2-524.5-648.9c-11.5-3.8-528.3,633.6-528.3,650.8c0,13.4,514.9,656.6,526.4,656.6C6906.6-128.2,7027.2-273.7,7170.8-453.6z M8122.2-738.9c-30.6-298.6-59.3-545.6-63.2-547.5c-13.4-13.4-402,488.1-394.3,509.2c17.2,53.6,503.4,639.4,509.2,612.6C8175.8-181.8,8152.8-440.2,8122.2-738.9z M2088.4-488.1c158.9-197.2,227.8-300.5,218.2-317.8c-7.7-13.4-91.9-120.6-187.6-239.3c-135.9-168.5-174.2-206.7-185.7-179.9c-5.7,19.1-30.6,224-53.6,455.6c-21.1,231.6-45.9,465.2-51.7,516.9C1814.7-137.8,1793.6-118.6,2088.4-488.1z M3983.5-1253.8c137.8-172.3,250.8-319.7,250.8-327.4c0-13.4-513-652.8-524.5-652.8c-3.8,0-124.4,147.4-269.9,325.4L3175.7-1583l65.1,82.3c260.3,333.1,469,581.9,478.6,572.4C3727-936,3845.7-1083.4,3983.5-1253.8z M5258.4-1908.5c-145.5-178-266.1-325.4-269.9-325.4c-21.1,0-524.5,645.1-516.9,664.3c5.8,13.4,122.5,164.6,262.3,338.8L4986.6-915l266.1-333.1l266.1-333.1L5258.4-1908.5z M2701-1250c201-250.8,250.8-325.4,239.3-352.2c-21.1-42.1-492-629.8-507.3-629.8c-5.7-1.9-111,120.6-231.6,271.8c-189.5,235.4-222,285.2-233.5,363.7l-13.4,90l233.5,287.1c128.3,157,237.4,287.1,245,287.1C2440.6-932.2,2561.2-1075.8,2701-1250z M6539.1-1255.7l258.4-325.4l-258.4-321.6c-141.7-176.1-266.1-321.6-273.8-321.6c-21.1,0-518.8,620.2-518.8,645.1c0,23,499.6,647,518.8,647C6273-932.2,6395.5-1077.7,6539.1-1255.7z M7800.6-1236.6c220.1-273.7,243.1-310.1,231.6-359.9c-11.5-47.9-449.9-620.2-484.3-633.6c-7.6-1.9-132.1,141.6-277.6,321.6l-262.2,327.3l258.4,323.5c143.6,179.9,268,325.4,275.7,325.4C7549.8-932.2,7666.6-1070,7800.6-1236.6z M3351.8-2059.7c164.6-204.8,246.9-319.7,235.5-335c-32.5-42.1-488.1-614.5-503.5-631.7c-19.1-21.1-539.8,633.6-528.3,664.2c21.1,55.5,516.9,647,530.3,631.7C3093.4-1738.1,3214-1887.4,3351.8-2059.7z M4615.2-2040.6c141.7-178,254.6-331.2,252.7-338.8c-5.7-28.7-503.5-639.4-520.7-639.4c-17.2,0-518.8,618.3-520.7,641.3c0,17.2,509.2,660.4,522.6,658.5C4354.9-1719,4473.6-1864.4,4615.2-2040.6z M5890.2-2040.6c141.7-176.1,258.4-327.3,258.4-335c0-28.7-524.5-662.3-536-648.9c-13.4,15.3-470.9,591.5-501.5,629.8c-11.5,15.3,74.7,135.9,247,350.3c143.6,179.9,264.2,327.3,268,327.3C5627.9-1717,5746.6-1862.5,5890.2-2040.6z M7170.8-2042.5c162.7-202.9,256.5-335,246.9-350.3c-13.4-24.9-455.6-582-492-622.1c-17.2-19.1-80.4,47.9-285.2,300.5c-143.6,179.9-262.3,331.2-262.3,338.8c0,13.4,514.9,658.5,526.4,658.5C6906.6-1717,7027.2-1864.4,7170.8-2042.5z M7957.6-2339.2c-19.1-195.3-40.2-354.1-46-354.1c-5.7,0-67,70.8-134,155c-111,139.7-120.6,158.9-99.5,195.3c51.7,80.4,296.7,377.1,304.3,367.5C7988.2-1981.2,7976.7-2143.9,7957.6-2339.2z M2174.5-2186c91.9-112.9,141.7-191.4,134-206.7c-49.8-80.4-227.8-283.3-231.6-260.4c-9.6,63.2-63.2,580-63.2,612.6c0,21.1,3.8,36.4,7.7,36.4C2025.2-2004.2,2094.2-2086.5,2174.5-2186z M2701-2840.7c137.8-170.4,250.8-317.8,250.8-327.3c0-21.1-493.9-641.3-514.9-650.8c-13.4-3.8-128.3,130.2-256.5,298.6c-17.2,21.1-68.9,442.2-70.8,560.9c0,34.5,47.9,111,155.1,245c86.1,107.2,162.7,193.3,170.4,189.5C2442.5-2528.7,2563.1-2670.3,2701-2840.7z M3975.9-2836.9c135.9-172.3,250.8-319.7,252.7-329.3c5.7-15.3-474.7-624-509.2-645.1c-15.3-9.6-379,419.2-514.9,606.8c-23,30.6-19.1,45.9,44,124.4c185.7,239.3,451.8,559,465.2,559C3721.3-2523,3838-2664.6,3975.9-2836.9z M5260.4-2846.5l260.4-323.5l-262.3-327.3c-145.5-178-268-325.4-275.6-325.4c-23,1.9-509.2,631.7-507.3,658.5c1.9,28.7,488.1,643.2,509.2,643.2C4992.4-2521,5116.8-2666.5,5260.4-2846.5z M6537.2-2844.6l260.4-323.5L6541-3491.6c-141.7-176.1-266.1-321.6-275.7-321.6c-21.1,0-518.8,618.3-518.8,645.1c0,21.1,499.6,647,516.8,647C6269.2-2521,6391.7-2666.5,6537.2-2844.6z M7727.9-2737.3l166.6-208.7l-23-231.6c-11.5-128.3-26.8-248.9-30.6-266.1c-9.6-34.5-269.9-365.6-294.8-375.2c-7.7-1.9-132.1,141.7-275.7,321.6L7008.1-3170l262.2,325.4c143.6,178,268,321.6,275.7,319.7C7555.6-2528.7,7636-2624.4,7727.9-2737.3z M3334.6-3631.3c130.2-162.7,243.1-306.3,250.8-315.9c9.6-13.4-44-95.7-128.3-201c-246.9-310.1-214.4-287.1-390.5-287.1h-151.2l-187.6,231.6c-168.5,210.6-181.9,235.5-160.8,269.9c67,107.2,505.4,627.9,518.8,614.5C3093.4-3326.9,3204.4-3468.6,3334.6-3631.3z M4619.1-3637.1l262.2-329.3l-76.6-95.7c-42.1-51.7-126.3-158.9-189.5-233.5l-112.9-139.7H4353c-174.2,0-155.1-13.4-394.3,285.2c-120.6,153.1-139.7,185.7-120.6,212.5c57.4,80.4,503.5,629.8,511.1,629.8C4354.9-3307.8,4475.5-3455.2,4619.1-3637.1z M5888.2-3627.5c143.6-178,260.4-329.3,260.4-338.8c0-7.7-82.3-116.8-181.9-241.2l-183.8-227.8h-147.4c-80.4,0-157,7.7-166.6,15.3c-11.5,7.7-99.5,111-197.2,229.7c-111,137.8-170.4,225.9-162.7,241.2c19.1,30.6,509.2,643.2,514.9,643.2C5626-3305.9,5744.7-3451.4,5888.2-3627.5z M7176.5-3640.9c124.4-157,233.5-296.7,241.2-310.1c7.7-13.4-61.3-116.8-172.3-252.7l-185.7-231.6h-155.1h-155L6564-4205.6c-101.5,126.3-185.7,233.5-185.7,239.3s116.8,157,262.3,336.9c208.6,260.4,264.2,321.6,283.3,300.5C6937.3-3342.3,7050.2-3482,7176.5-3640.9z M7804.4-3836.1c-3.8-30.6-13.4-105.3-21-168.5l-11.5-112.9l-55.5,65.1c-30.6,36.4-55.5,74.7-55.5,84.2c0,17.2,130.2,183.8,143.6,183.8C7810.2-3784.5,7810.2-3807.4,7804.4-3836.1z M2320-3964.4c0-7.6-21.1-40.2-45.9-68.9l-45.9-55.5l-11.5,59.3c-5.7,32.5-11.5,93.8-11.5,135.9v78.5l57.4-65.1C2293.2-3916.5,2318.1-3954.8,2320-3964.4z M2565.1-4261.1c65.1-84.2,118.7-157,118.7-162.7s-93.8-11.5-210.6-11.5c-208.7,0-210.6,0-222.1,47.9c-5.7,26.8-3.8,59.3,5.8,72.7c76.6,99.6,164.6,204.8,176.1,204.8C2438.7-4109.9,2498.1-4178.8,2565.1-4261.1z M3847.6-4264.9c67-84.2,118.7-158.9,112.9-162.7c-3.8-5.8-122.5-5.8-262.3-3.8l-252.7,5.7l126.3,158.9c70.8,86.1,134,157,141.7,155.1C3721.3-4111.8,3782.5-4180.7,3847.6-4264.9z M5122.5-4266.9l126.4-158.9l-250.8-5.7c-139.7-1.9-256.5,0-260.3,3.8c-11.5,11.5,227.8,317.8,246.9,317.8C4990.4-4109.9,5053.6-4180.7,5122.5-4266.9z M6389.8-4253.4c63.2-78.5,116.8-153.1,118.7-162.7c3.8-11.5-88-19.1-245-19.1c-157,0-248.9,7.7-245,19.1c9.6,28.7,233.5,306.3,246.9,306.3C6271.1-4109.9,6328.5-4175,6389.8-4253.4z M7657-4240c145.5-180,134-195.3-153.1-195.3c-181.9,0-225.9,5.7-212.5,24.9c128.3,166.6,243.1,300.6,256.5,296.7C7555.6-4117.5,7605.3-4173,7657-4240z"/></g></g>
</svg>