<svg xmlns="http://www.w3.org/2000/svg" width="23.971" height="23.967" viewBox="0 0 23.971 23.967">
  <g id="Home_Icon_Light" transform="translate(11.985 11.984)">
    <path id="Контур_625" data-name="Контур 625" d="M23.678,11.278,20.985,8.586V1a1,1,0,0,0-2,0V6.586L12.692.293a1,1,0,0,0-1.414,0l-8,8v0L.293,11.278a1,1,0,0,0,1.414,1.414l1.278-1.278V22.967a1,1,0,0,0,1,1h16a1,1,0,0,0,1-1V11.414l1.279,1.278a1,1,0,1,0,1.414-1.414ZM18.985,21.967h-14V9.414l7-7,7,7Z" transform="translate(-11.985 -11.984)" fill="#e6ffff"/>
  </g>
</svg>
